<?xml version="1.0" encoding="utf-8"?>

<svg version="1.1" id="Layer_1" xmlns="http://www.w3.org/2000/svg" xmlns:xlink="http://www.w3.org/1999/xlink" x="0px" y="0px"
	 viewBox="0 0 359 270" style="enable-background:new 0 0 359 270;" xml:space="preserve">
	<style type="text/css">
		.st0{fill-rule:evenodd;clip-rule:evenodd;fill:#e0e0e0;}
		.st1{filter:url(#Adobe_OpacityMaskFilter);}
		.st2{fill-rule:evenodd;clip-rule:evenodd;fill:#FFFFFF;}
		.st3{mask:url(#mask-2_1_);}
	</style>		
	<g id="Mask">
		<path class="st0" d="M177.2,54.3c6.1,21.2,19.4,48.5,24,54.7c5.3-1.2,9.1,1.2,12.4,5.1c-1.2,0.9-2.7,1.5-3.4,2.6
			c-2.7,4.4-6.9,3-10.7,3.2c-2.8,0.2-5.6,0.3-8.4,0.3c-0.9,0-1.8-0.3-2.7-0.5c-1-0.3-1.9-1-2.8-1c-2.5,0.1-4.7,0-7.1-1.1
			c-1-0.5-2.6,0.9-3.6-0.8c-1.1-1.8-2.2-3.6-3.4-5.5c-1.2,0.2-2.2,0.4-3.4,0.6c-2.4-3-3.4-14.8-6.1-17.7
			c-0.6-0.7-2.1-2.2-3.8-2.7c-0.3-0.9-5.4-7.2-5.9-8.7c-0.2-0.5-0.3-1.2-0.7-1.4c-3.1-2-4.2-4.9-4-8.5c0-0.4-0.2-0.7-0.4-1.7
			c-1.2,2.7-2.2,4.8-3.2,7.1c-0.6,1.4-1,2.9-1.8,4.3c-0.5,0.9-1.3,1.6-2,2.3c-2.4,2.2-1.8,0.9-3.2,3.6c-1.1,2-2,4-3,6.1
			c-0.5,1.1-0.9,2.2-1.1,3.3c-0.7,4.1-3.2,7.6-1.5,11.2c3,0.6,6.3,0.5,8.6,2c2.2,1.5,3.5,4.5,5,6.7c-3.1,0.5-5.9,1.2-8.7,1.4
			c-3.8,0.3-7.6,0.2-11.3,0.2c-5,0-10.1-0.1-15.1-0.1c-2.6,0-3.9-1.5-5.4-3.7c-2.1-3.1-1.1-6-0.8-9.1c0.1-0.8,0-3.3-0.1-4.2
			c-0.1-0.9-0.1-1.9,0-2.9c0.2-1.3,0.8-2.6,0.9-3.9c0.1-1.5-0.4-3-0.4-4.5c0-1.5,0.1-3.1,0.5-4.6c0.7-2.7-0.1,0,0.7-2.7
			c0.1-0.2,0-0.7,0-0.8c-0.9-3.6,1.8-6,2.8-8.8c0-0.1,0-0.1-0.1-0.5c-1.8,1.8-4.1,0.8-6.1,1.2c-2.9,0.6-5.7,2.1-8,3
			c-1.4-0.1-2.5-0.4-3.5-0.2c-2,0.5-3.9,1.1-6.2,0.9c-2.5-0.2-5.1,0.6-7.7,0.8c-2.2,0.2-4.8,0.9-6.5,0c-1.5-0.7-2.8-0.9-4.4-1
			c-1.6-0.1-2.4,0.7-2.6,2.1c-1.1,6.3-2.3,12.7-3.1,19.1c-0.4,3.3-0.2,6.6-0.2,9.9c0,1.5,0.6,2.5,1.9,3.5
			c1.5,1.1,2.6,2.7,3.6,4.3c0.8,1.3,0.6,2.6-1.5,2.7c-7.3,0.2-14.6,0.5-21.9,0.4c-2.1,0-4.2-1.5-6.2-2.5
			c-0.3-0.2-0.4-1.1-0.4-1.7c0-4.4,0-13.5,0-18.4c-1,0.6-1.3,0.8-1.6,1c-2.5,2.3-4.9,4.1-7.3,6.4c-1.9,1.8-1.6,3.3,0.2,5.4
			c2.4,2.7,4.4,5.7,4.4,9.5c0,2.5-2.2,3.2-3.8,3.3c-5.7,0.4-11.5,0.4-17.2,0.4c-2.8,0-3.8-1.5-4.4-4.2
			c-1.2-5.4-2.2-10.8-4.3-16.1c-1.6-4.1-2-8.9,1.5-13c5.1-5.9,9.5-12.3,12.8-19.5c1-2.2,1.4-3.8,0.4-6.1c-4.9-1-7.1-3.7-8.2-8.7
			c-1-4.6-0.2-8.9,1-13.2c2.3-7.8,4.1-11,8.4-18c5.6-9,13.4-15.5,22.8-20.2c11.3-5.6,23.3-5.5,35.3-4.2
			c16.2,1.6,32.4,3.6,48.6,5.3c1.3,0.1,2.9-0.2,4.1-0.8c7.7-3.9,15.5-4.2,23.6-1.4c5.6,1.9,11.4,3.6,17.1,5.2
			c2,0.6,4.1,0.8,6.2,1.1c5.7,0.9,11.5,1.8,17.3,2.4c2.9,0.3,5.9,0.1,8.8,0.3c0.7,0,1.5,0.3,2.1,0.7c2.6,1.8,5.1,3.7,7.5,5.6
			c1.6,1.2,3.2,2.3,4.5,3.8c0.6,0.7,0.7,1.9,0.9,2.9c0.3,1.1,0.3,2.6,0.9,3.4c2.6,3.1,5.3,6,8.1,8.9c0.9,1,1.1,1.7,0.3,2.9
			c-1.2,1.6-1.8,3.7-3.3,4.8c-3.1,2.2-6.3,4.3-10.7,3.2c-2.5-0.6-5.5,0.5-8.2,0.8c-2.1,0.3-4.3,0.2-6.2,0.9
			c-4.1,1.6-8.5,1.1-12.5,2.3c-1.5,0.4-2.8,1.2-4.3,1.6C179.2,54.8,178.3,54.5,177.2,54.3"/>
	</g>
</svg>
