<?xml version="1.0" encoding="utf-8"?>
<!-- Generator: Adobe Illustrator 21.1.0, SVG Export Plug-In . SVG Version: 6.00 Build 0)  -->
<svg version="1.1" xmlns="http://www.w3.org/2000/svg" x="0px" y="0px"
     viewBox="0 0 140 40" style="enable-background:new 0 0 140 40;" xml:space="preserve">
<style type="text/css">
	.st0{display:none;}
	.st1{display:inline;}
	.st2{display:inline;fill:#FFFFFF;}
	.st3{display:inline;opacity:0.5;fill:#FFFFFF;enable-background:new    ;}
	.st4{fill:#FFFFFF;}
	.st5{fill:#FBFCFD;}
	.st6{fill:#B0D261;}
</style>
    <g id="圖層_3" class="st0">
	<rect x="-1.6" y="-2" class="st1" width="126.9" height="44.3"/>
</g>
    <g id="Layer_1" class="st0">
	<polygon class="st2" points="0.7,4.5 5.4,4.5 8.3,13.5 8.4,13.5 10.8,4.5 15.6,4.5 18.2,13.5 18.3,13.5 20.9,4.5 25.4,4.5 
		20.3,18.8 16,18.8 13,9.3 13,9.3 10.4,18.8 5.9,18.8 	"/>
        <rect x="26.3" y="0.8" class="st2" width="4.7" height="3.6"/>
        <rect x="26.3" y="4.5" class="st3" width="4.7" height="14.4"/>
        <path class="st2" d="M40.9,8.6c-0.6-0.8-1.5-1.2-2.5-1.2c-0.7,0-1.6,0.3-1.6,1.2c0,2.1,7.4,0.3,7.4,5.8c0,3.7-3.5,4.8-6.6,4.8
		c-2,0-4.2-0.5-5.6-1.9l2.6-3c0.8,1,1.8,1.5,3.1,1.5c1,0,2-0.3,2-1c0-2.3-7.4-0.4-7.4-5.9c0-3.3,3-4.8,6-4.8c1.9,0,3.9,0.5,5.3,1.9
		L40.9,8.6z"/>
        <path class="st2" d="M54.9,8H51v4.8c0,1.5,0.2,2.6,2.1,2.6c0.5,0,1.4-0.1,1.8-0.4v3.7c-1,0.4-2.1,0.5-3.1,0.5
		c-2.9,0-5.1-1.2-5.1-4.4V8h-2.8V4.5h2.8V0.9H51v3.6h3.9V8z"/>
        <path class="st2" d="M56.5,4.5h4.4v2.3H61c0.8-1.8,2.1-2.7,4-2.7c0.5,0,1,0,1.5,0.1v4.1C65.8,8.1,65.3,8,64.6,8
		c-3.3,0-3.7,1.9-3.7,4.8v6h-4.4L56.5,4.5L56.5,4.5z"/>
        <path class="st2" d="M70.3,11.6c0-2.2,1.3-3.7,3.5-3.7s3.5,1.5,3.5,3.7s-1.3,3.7-3.5,3.7C71.6,15.3,70.3,13.8,70.3,11.6 M66,11.6
		c0,4.6,3.5,7.5,7.9,7.5s7.8-3,7.8-7.5s-3.5-7.5-7.8-7.5C69.4,4.1,66,7,66,11.6z"/>
        <path class="st2" d="M83,4.5h4.2v1.9h0.1c0.6-1.1,2-2.3,4.1-2.3c4.4,0,5.3,3,5.3,6.8v7.9h-4.4v-7.1c0-1.7,0-3.8-2.3-3.8
		s-2.6,1.8-2.6,3.7v7.2H83V4.5L83,4.5z"/>
        <path class="st2" d="M99.6,2.7c0,0.4-0.1,0.7-0.4,1s-0.6,0.4-1,0.4s-0.7-0.1-1-0.4s-0.4-0.6-0.4-1s0.1-0.7,0.4-1s0.6-0.4,1-0.4
		s0.7,0.1,1,0.4C99.5,1.9,99.6,2.2,99.6,2.7 M99.4,2.7c0-0.3-0.1-0.6-0.3-0.8c-0.2-0.2-0.5-0.3-0.8-0.3s-0.6,0.1-0.8,0.3
		c-0.2,0.2-0.3,0.5-0.3,0.8s0.1,0.6,0.3,0.8c0.2,0.3,0.5,0.3,0.8,0.3s0.6-0.1,0.8-0.3C99.3,3.2,99.4,3,99.4,2.7 M99,2.3
		c0,0.3-0.1,0.4-0.4,0.4L99,3.4h-0.3l-0.3-0.6H98v0.6h-0.3V1.9h0.7c0.2,0,0.3,0.1,0.5,0.1C98.9,2.1,99,2.2,99,2.3 M98.7,2.3
		c0-0.1-0.1-0.1-0.1-0.2c-0.1,0-0.1-0.1-0.3-0.1H98v0.5h0.5c0.1,0,0.2,0,0.2-0.1C98.7,2.5,98.7,2.4,98.7,2.3z"/>
        <g class="st1">
		<path class="st4"
              d="M36,39h-2l-1.5-6.7h-0.1L30.8,39h-2.1l-2.4-9.8h2l1.4,6.7l0,0l1.6-6.7h1.9l1.5,6.8l0,0l1.5-6.8h2L36,39z"/>
            <path class="st4" d="M41.3,30.8h-1.7v-1.6h1.7V30.8z M39.6,31.9h1.7V39h-1.7V31.9z"/>
            <path class="st4" d="M44.2,36.8c0,0.5,0.1,0.7,0.5,0.9c0.3,0.2,0.6,0.3,1,0.3c0.3,0,0.5-0.1,0.8-0.2c0.3-0.1,0.4-0.4,0.4-0.7
			s-0.2-0.5-0.5-0.6c-0.4-0.1-0.8-0.3-1.5-0.5c-0.1-0.1-0.3-0.1-0.4-0.1c-0.1,0-0.3-0.1-0.4-0.1c-0.3-0.1-0.5-0.2-0.6-0.3
			s-0.3-0.3-0.5-0.6c-0.1-0.2-0.2-0.5-0.2-0.8c0-0.5,0.1-0.8,0.3-1.1c0.1-0.3,0.4-0.5,0.6-0.7c0.3-0.2,0.6-0.3,0.9-0.4
			s0.6-0.1,1-0.1c0.7,0,1.4,0.1,1.9,0.5c0.5,0.3,0.8,1,1,1.8h-1.7c-0.1-0.4-0.1-0.6-0.4-0.8c-0.3-0.1-0.5-0.2-0.8-0.2
			c-0.2,0-0.5,0.1-0.6,0.1s-0.3,0.3-0.3,0.5s0.1,0.3,0.2,0.4c0.1,0.1,0.3,0.2,0.5,0.3s0.4,0.1,0.6,0.2c0.3,0.1,0.5,0.1,0.7,0.2
			c0.3,0.1,0.5,0.1,0.8,0.2c0.3,0.1,0.5,0.2,0.6,0.4c0.2,0.1,0.3,0.3,0.5,0.6c0.1,0.3,0.1,0.5,0.1,0.8c0,0.9-0.3,1.5-0.9,1.9
			s-1.3,0.5-2.1,0.5s-1.5-0.2-2.1-0.6c-0.6-0.4-0.9-1-1-1.9L44.2,36.8L44.2,36.8L44.2,36.8z"/>
            <path class="st4" d="M52,31.9h1.3v1.3H52v3.5c0,0.3,0.1,0.5,0.1,0.6c0.1,0.1,0.3,0.2,0.6,0.2c0.2,0,0.4,0,0.6-0.1V39
			c-0.3,0.1-0.6,0.1-1,0.1c-0.3,0-0.5,0-0.8-0.1s-0.5-0.1-0.6-0.3s-0.3-0.3-0.5-0.5c-0.1-0.2-0.2-0.5-0.2-0.8v-4.2h-1.1v-1.3h1.1
			v-2.1h1.7L52,31.9L52,31.9z"/>
            <path class="st4" d="M54.3,31.9H56v1.4l0,0c0.2-0.5,0.5-0.8,0.8-1.1c0.4-0.3,0.8-0.4,1.2-0.4c0.1,0,0.3,0,0.4,0.1v1.7
			c-0.2-0.1-0.4-0.1-0.6-0.1c-0.6,0-1.1,0.3-1.4,0.6c-0.3,0.5-0.4,1-0.4,1.6V39h-1.7V31.9z"/>
            <path class="st4" d="M58.8,35.5c0-1.2,0.3-2.1,0.9-2.7c0.6-0.6,1.4-1,2.4-1s1.9,0.3,2.4,1c0.6,0.6,0.9,1.6,0.9,2.7
			c0,1.2-0.3,2.1-0.9,2.7c-0.6,0.7-1.4,1-2.4,1s-1.8-0.3-2.4-1C59.2,37.5,58.8,36.6,58.8,35.5z M60.6,35.5c0,0.6,0.1,1.1,0.3,1.5
			s0.6,0.7,1.2,0.7s1-0.3,1.2-0.7c0.2-0.5,0.3-1,0.3-1.5c0-0.6-0.1-1.2-0.3-1.6s-0.6-0.7-1.2-0.7s-1,0.3-1.2,0.7
			C60.7,34.4,60.6,34.9,60.6,35.5z"/>
            <path class="st4" d="M66.9,31.9h1.7v1h0.1c0.3-0.4,0.5-0.7,0.9-0.9c0.3-0.2,0.7-0.3,1.1-0.3c0.9,0,1.5,0.3,1.9,0.8
			c0.3,0.5,0.5,1.2,0.5,2.1V39h-1.8v-4c0-1.2-0.4-1.7-1.2-1.7c-0.9,0-1.4,0.6-1.4,2.1v3.7H67L66.9,31.9L66.9,31.9z"/>
            <path class="st4" d="M78.3,29.2h2V39h-2V29.2z"/>
            <path class="st4" d="M84,31h-2.6v-1.8h7.3V31H86v8h-2V31z"/>
            <path class="st4" d="M91.3,35.8c0,0.6,0.2,1.1,0.6,1.4c0.4,0.3,0.8,0.5,1.4,0.5c0.2,0,0.4,0,0.6-0.1s0.4-0.1,0.6-0.2
			s0.3-0.2,0.5-0.4c0.1-0.1,0.2-0.3,0.2-0.6s-0.1-0.5-0.2-0.7s-0.4-0.3-0.6-0.4c-0.5-0.2-1.2-0.4-1.8-0.6c-0.3-0.1-0.6-0.2-1-0.4
			c-0.3-0.1-0.6-0.3-0.8-0.5c-0.3-0.2-0.5-0.5-0.6-0.8s-0.3-0.7-0.3-1.2c0-1,0.4-1.7,1.1-2.3c0.6-0.5,1.4-0.7,2.3-0.7
			c1,0,1.8,0.3,2.5,0.7c0.7,0.5,1,1.3,1.1,2.4H95c0-0.6-0.2-1-0.5-1.2s-0.7-0.3-1.2-0.3c-0.3,0-0.6,0.1-0.9,0.3
			c-0.3,0.2-0.5,0.5-0.5,0.9c0,0.2,0.1,0.3,0.1,0.5c0.1,0.1,0.2,0.3,0.4,0.3c0.4,0.2,1.1,0.5,2.2,0.7c0.2,0.1,0.4,0.1,0.7,0.2
			c0.3,0.1,0.6,0.3,0.9,0.5s0.6,0.5,0.8,0.8c0.2,0.4,0.3,0.8,0.3,1.4c0,0.9-0.3,1.7-1,2.3c-0.6,0.6-1.5,0.9-2.8,0.9
			c-1,0-1.9-0.3-2.6-0.8c-0.8-0.6-1.2-1.4-1.2-2.6L91.3,35.8L91.3,35.8z"/>
	</g>
</g>
    <g id="圖層_2">
	<path class="st5"
          d="M0,4.3h4.7l2.9,9h0.1l2.5-9H15l2.7,9h0.1l2.7-9h4.5l-5.1,14.4h-4.4l-3-9.5h-0.1l-2.7,9.5H5.3L0,4.3z"/>
        <rect x="25.8" y="0.7" class="st4" width="4.7" height="3.6"/>
        <rect x="25.8" y="4.3" class="st6" width="4.7" height="14.4"/>
        <g>
		<path class="st5" d="M40.7,8.6c-0.6-0.8-1.5-1.2-2.6-1.2c-0.7,0-1.6,0.3-1.6,1.2c0,2.1,7.5,0.3,7.5,5.8c0,3.7-3.5,4.7-6.6,4.7
			c-2,0-4.2-0.5-5.6-1.9l2.7-3c0.8,1,1.8,1.6,3.1,1.6c1,0,2-0.3,2-1c0-2.3-7.5-0.4-7.5-5.8c0-3.4,3-4.8,6-4.8c1.9,0,4,0.5,5.3,1.9
			L40.7,8.6z"/>
            <path class="st5" d="M54.8,7.9h-3.9v4.8c0,1.5,0.2,2.7,2.1,2.7c0.5,0,1.4-0.1,1.8-0.4v3.7c-1,0.4-2.1,0.4-3.1,0.4
			c-3,0-5.2-1.2-5.2-4.3V7.9h-2.8V4.3h2.8V0.7h4.4v3.6h3.9V7.9z"/>
	</g>
        <g>
		<g>
			<path class="st5" d="M56.4,4.3h4.4v2.3h0.1C61.8,4.9,63,4,65,4c0.5,0,1.1,0,1.5,0.2v4c-0.6-0.2-1.2-0.3-1.9-0.3
				c-3.4,0-3.8,2-3.8,4.8v6h-4.4V4.3z"/>
            <path class="st5" d="M70.4,11.5c0-2.2,1.3-3.6,3.5-3.6c2.2,0,3.5,1.5,3.5,3.6c0,2.2-1.3,3.6-3.5,3.6
				C71.7,15.1,70.4,13.7,70.4,11.5z M66,11.5c0,4.6,3.5,7.5,8,7.5c4.4,0,8-3,8-7.5c0-4.6-3.5-7.5-8-7.5C69.5,4,66,6.9,66,11.5z"/>
		</g>
            <path class="st5" d="M83.2,4.3h4.3v2h0.1c0.6-1.1,2-2.3,4.2-2.3c4.5,0,5.3,3,5.3,6.8v7.9h-4.4v-7c0-1.7,0-3.8-2.3-3.8
			c-2.3,0-2.7,1.8-2.7,3.7v7.1h-4.4V4.3z"/>
	</g>
        <g>
		<path class="st5" d="M99.6,2.6c0,0.4-0.1,0.7-0.4,0.9c-0.2,0.3-0.6,0.4-0.9,0.4c-0.4,0-0.7-0.1-0.9-0.4C97.1,3.3,97,3,97,2.6
			c0-0.4,0.1-0.7,0.4-0.9c0.3-0.3,0.6-0.4,0.9-0.4c0.4,0,0.7,0.1,0.9,0.4C99.5,2,99.6,2.3,99.6,2.6z M99.4,2.6
			c0-0.3-0.1-0.5-0.3-0.7c-0.2-0.2-0.5-0.3-0.7-0.3c-0.3,0-0.5,0.1-0.7,0.3c-0.2,0.2-0.3,0.5-0.3,0.7c0,0.3,0.1,0.5,0.3,0.7
			c0.2,0.2,0.5,0.3,0.7,0.3c0.3,0,0.5-0.1,0.7-0.3C99.3,3.2,99.4,2.9,99.4,2.6z M99,2.4c0,0.2-0.1,0.4-0.4,0.4l0.3,0.6l-0.3,0
			l-0.3-0.6l-0.3,0v0.6h-0.3V1.9h0.7c0.2,0,0.3,0,0.4,0.1C98.9,2.1,99,2.2,99,2.4z M98.7,2.3c0-0.1,0-0.1-0.1-0.2
			c-0.1,0-0.1,0-0.2,0H98v0.4h0.4c0.1,0,0.1,0,0.2,0C98.7,2.5,98.7,2.4,98.7,2.3z"/>
	</g>
        <g>
		
	</g>
</g>
</svg>
