<?xml version="1.0" encoding="utf-8"?>
<!-- Generator: Adobe Illustrator 21.1.0, SVG Export Plug-In . SVG Version: 6.00 Build 0)  -->
<svg version="1.1" id="Layer_1" xmlns="http://www.w3.org/2000/svg" x="0px"
     y="0px"
     viewBox="0 0 140 40" style="enable-background:new 0 0 140 40;" xml:space="preserve">
<style type="text/css">
	.st0{fill:#00698F;}
	.st1{fill:#95C566;}
</style>
    <g id="圖層_2">
	<polygon class="st0" points="0.7,4.5 5.4,4.5 8.3,13.5 8.4,13.5 10.8,4.5 15.6,4.5 18.2,13.5 18.3,13.5 20.9,4.5 25.4,4.5 
		20.3,18.8 16,18.8 13,9.3 13,9.3 10.4,18.8 5.9,18.8 	"/>
        <rect x="26.3" y="0.8" class="st0" width="4.7" height="3.6"/>
        <rect x="26.3" y="4.5" class="st1" width="4.7" height="14.4"/>
        <path class="st0" d="M40.9,8.6c-0.6-0.8-1.5-1.2-2.5-1.2c-0.7,0-1.6,0.3-1.6,1.2c0,2.1,7.4,0.3,7.4,5.8c0,3.7-3.5,4.8-6.6,4.8
		c-2,0-4.2-0.5-5.6-1.9l2.6-3c0.8,1,1.8,1.5,3.1,1.5c1,0,2-0.3,2-1c0-2.3-7.4-0.4-7.4-5.9c0-3.3,3-4.8,6-4.8c1.9,0,3.9,0.5,5.3,1.9
		L40.9,8.6z"/>
        <path class="st0" d="M54.9,8H51v4.8c0,1.5,0.2,2.6,2.1,2.6c0.5,0,1.4-0.1,1.8-0.4v3.7c-1,0.4-2.1,0.5-3.1,0.5
		c-2.9,0-5.1-1.2-5.1-4.4V8h-2.8V4.5h2.8V0.9H51v3.6h3.9V8z"/>
        <path class="st0" d="M56.5,4.5h4.4v2.3h0.1C61.8,5,63.1,4.1,65,4.1c0.5,0,1,0,1.5,0.1v4.1C65.8,8.1,65.3,8,64.6,8
		c-3.3,0-3.7,1.9-3.7,4.8v6h-4.4L56.5,4.5L56.5,4.5z"/>
        <path class="st0" d="M70.3,11.6c0-2.2,1.3-3.7,3.5-3.7c2.2,0,3.5,1.5,3.5,3.7s-1.3,3.7-3.5,3.7C71.6,15.3,70.3,13.8,70.3,11.6
		 M66,11.6c0,4.6,3.5,7.5,7.9,7.5c4.4,0,7.8-3,7.8-7.5s-3.5-7.5-7.8-7.5C69.4,4.1,66,7,66,11.6z"/>
        <path class="st0" d="M83,4.5h4.2v1.9h0.1c0.6-1.1,2-2.3,4.1-2.3c4.4,0,5.3,3,5.3,6.8v7.9h-4.4v-7.1c0-1.7,0-3.8-2.3-3.8
		s-2.6,1.8-2.6,3.7v7.2H83L83,4.5L83,4.5z"/>
        <path class="st0" d="M99.6,2.7c0,0.4-0.1,0.7-0.4,1c-0.3,0.3-0.6,0.4-1,0.4s-0.7-0.1-1-0.4c-0.3-0.3-0.4-0.6-0.4-1s0.1-0.7,0.4-1
		c0.3-0.3,0.6-0.4,1-0.4s0.7,0.1,1,0.4C99.5,1.9,99.6,2.2,99.6,2.7 M99.4,2.7c0-0.3-0.1-0.6-0.3-0.8c-0.2-0.2-0.5-0.3-0.8-0.3
		c-0.3,0-0.6,0.1-0.8,0.3c-0.2,0.2-0.3,0.5-0.3,0.8s0.1,0.6,0.3,0.8c0.2,0.3,0.5,0.3,0.8,0.3s0.6-0.1,0.8-0.3
		C99.3,3.2,99.4,3,99.4,2.7 M99,2.3c0,0.3-0.1,0.4-0.4,0.4L99,3.4h-0.3l-0.3-0.6H98v0.6h-0.3V1.9h0.7c0.2,0,0.3,0.1,0.5,0.1
		C98.9,2.1,99,2.2,99,2.3 M98.7,2.3c0-0.1-0.1-0.1-0.1-0.2c-0.1,0-0.1-0.1-0.3-0.1H98v0.5h0.5c0.1,0,0.2,0,0.2-0.1
		C98.7,2.5,98.7,2.4,98.7,2.3z"/>
        <g>
		
	</g>
</g>
</svg>
