<svg id="圖層_1" data-name="圖層 1" xmlns="http://www.w3.org/2000/svg" viewBox="0 0 210.19 80.53">
    <defs>
        <style>.cls-1{fill:#00698f;}.cls-2{fill:#95c566;}</style>
    </defs>
    <title>logo</title>
    <polygon class="cls-1"
             points="0 7.56 9.93 7.56 16.07 26.48 16.2 26.48 21.34 7.56 31.52 7.56 37.1 26.48 37.23 26.48 42.88 7.56 52.3 7.56 41.57 37.72 32.39 37.72 26.12 17.67 26 17.67 20.41 37.72 11.04 37.72 0 7.56"/>
    <rect class="cls-1" x="54.27" width="9.92" height="7.56"/>
    <rect class="cls-2" x="54.27" y="7.56" width="9.92" height="30.16"/>
    <path class="cls-1"
          d="M85.39,16.43A6.64,6.64,0,0,0,80,13.89c-1.55,0-3.42.68-3.42,2.48,0,4.47,15.7.68,15.7,12.16,0,7.69-7.45,9.93-13.9,9.93-4.22,0-8.87-1.05-11.85-4.09l5.65-6.27a8.09,8.09,0,0,0,6.58,3.29c2.11,0,4.22-.56,4.22-2.17,0-4.84-15.7-.75-15.7-12.23,0-7.07,6.33-10.18,12.66-10.18,4,0,8.38,1,11.17,4Z"/>
    <path class="cls-1"
          d="M115.07,15h-8.19V25.06c0,3.23.38,5.59,4.41,5.59,1,0,3-.13,3.79-.87v7.76a19.29,19.29,0,0,1-6.52.93c-6.21,0-11-2.54-11-9.12V15h-6V7.56h6V0h9.31V7.56h8.19Z"/>
    <path class="cls-1"
          d="M118.34,7.56h9.31V12.4h.13c2-3.66,4.59-5.59,8.69-5.59a12.35,12.35,0,0,1,3.1.31v8.5a14.38,14.38,0,0,0-4-.62c-7.08,0-7.95,4.1-7.95,10.12v12.6h-9.31Z"/>
    <path class="cls-1"
          d="M147.87,22.64c0-4.53,2.79-7.63,7.45-7.63s7.44,3.1,7.44,7.63-2.79,7.63-7.44,7.63-7.45-3.1-7.45-7.63m-9.3,0c0,9.62,7.45,15.82,16.75,15.82s16.75-6.2,16.75-15.82S164.62,6.81,155.32,6.81,138.56,13,138.56,22.64Z"/>
    <path class="cls-1"
          d="M174.71,7.56h8.94v4.09h.12a9.78,9.78,0,0,1,8.81-4.84c9.44,0,11.17,6.21,11.17,14.27V37.72h-9.3V22.95c0-3.47-.07-7.94-4.84-7.94S184,18.79,184,22.7v15h-9.31Z"/>
    <path class="cls-1"
          d="M210.19,3.79a2.85,2.85,0,0,1-.87,2.09,3,3,0,0,1-5.05-2.09,2.85,2.85,0,0,1,.86-2.09,3,3,0,0,1,5.06,2.09m-.55,0a2.31,2.31,0,0,0-.71-1.7,2.42,2.42,0,0,0-3.41,0,2.32,2.32,0,0,0-.7,1.7,2.41,2.41,0,0,0,4.11,1.71,2.29,2.29,0,0,0,.71-1.71m-.84-.59a.77.77,0,0,1-.88.86l.78,1.34H208L207.26,4h-.64V5.39H206V2.21h1.55a1.5,1.5,0,0,1,.92.25.87.87,0,0,1,.33.73m-.63-.09a.34.34,0,0,0-.21-.36,1.67,1.67,0,0,0-.56-.07h-.78v.91h.95a.83.83,0,0,0,.45-.1A.41.41,0,0,0,208.17,3.1Z"/>
    
</svg>