<svg xmlns="http://www.w3.org/2000/svg" viewBox="0 0 345.45 62.36"><defs><style>.cls-1{fill:#888988;}</style></defs><title>资源 1</title><g id="图层_2" data-name="图层 2"><g id="隔离模式"><path class="cls-1" d="M14.92,46.72a.92.92,0,0,0-.26-.15c-.1,0-.11,0-.2,0a.19.19,0,0,0-.19.14c-.08.19.12.43.46.59s.51-.4.19-.62m6.64,5.1c-.07-.12.16-.41-.18-.41a.9.9,0,0,0-.3,0c-.06,0-.16.26-.18.25a5.75,5.75,0,0,0-.81-.29c-.36-.09-.56-.35-.85-.26a1,1,0,0,0-.33.12.32.32,0,0,0,.07.54c.09.06.71,0,1,0s.57.14.59.26-.06.16-.17.24a1,1,0,0,1-.86.15s0-.09,0-.14.31-.08.32-.12-.32-.16-.62-.19a1.14,1.14,0,0,0-.31,0,1.69,1.69,0,0,0-.9,1.06c-.14.43-.33.75-.11.94s.41-.06.6-.54A1,1,0,0,1,19,53a.44.44,0,0,1,.61-.07s0,.1-.12.1a.44.44,0,0,0-.36.16c0,.1,0,.23,0,.36s-.28.1-.1.38c0,0-.16.09-.22,0s0-.08,0-.09-.26.19-.29.21a1.4,1.4,0,0,1-.59.24,9.82,9.82,0,0,0-1.22.41c-.35.16-.3.42.09.59.17.08.65-.13.88-.21a1.6,1.6,0,0,1,.67-.14c.16,0-.53.85-.52,1s.34.46.48.19.13-.28.22-.47.2-.29.27-.42.21-.36.26-.34.09.23.2.5A3.38,3.38,0,0,0,20.72,57c.34.17.61,0,.47-.43l-.08-.22c-.07-.17-.07,0-.39-.23-.09-.07-.47-.46-.67-.64A1.67,1.67,0,0,1,19.7,55c-.06-.14-.23-.21.06-.34s.05-.29.2-.31.36,0,.52,0,.44-.19.75-.29.68-.65.53-.88-.33-.23-.6-.39-.44.09-.29-.13.12-.22.28-.22,1,.39,1.08,0-.52-.23-.67-.49M21,53.35c0,.25-.41.43-.67.5-.1,0-.21.11-.27.12s-.14,0,0-.2.27-.28.15-.41.08-.47.19-.37.59.29.59.36M29,8.3l-.1-1.86.71,0,1.31,1.79,1-.05L30.53,6.25a1.21,1.21,0,0,0,.6-.51,1.41,1.41,0,0,0,.18-.81,1.31,1.31,0,0,0-.44-1,1.4,1.4,0,0,0-1.06-.32l-1.91.11.26,4.59Zm.8-3.82a.64.64,0,0,1,.46.12.52.52,0,0,1,.19.4.52.52,0,0,1-.14.42.66.66,0,0,1-.44.17l-1,.06L28.8,4.54ZM15.36,47.7c-.2,0,0,.26,0,.3s.09,0,.13.06.25.3.36.32c.4.06.5-.24.24-.5a.82.82,0,0,0-.76-.18m14.33,7.57c-.3-.14-.8.15-.92,0s.07-.21.09-.32a.29.29,0,0,0-.19-.35c-.08,0-.08-.13,0-.14a1.65,1.65,0,0,1,.36,0,.54.54,0,0,0,.61-.23.27.27,0,0,0-.08-.32,2.51,2.51,0,0,0-1.08-.11c-.52,0-1.06,0-1.17.18s-.16.2-.22.31-.13.32-.23.39c-.31.21-.4.65-.45.5s-.19-.09-.28-.11,0-.13,0-.17.05,0,.12,0a.87.87,0,0,0,.46-.42c.1-.35.24-.62.08-.83a.82.82,0,0,0-.62-.27,1.18,1.18,0,0,0-.47.07c-.23.1-.31.38-.45.73a3.88,3.88,0,0,0-.25.54c-.08.28-.17.67-.22.87a2,2,0,0,0,0,1.09c.05.17,0,.4.24.42s.1-.72.17-1a.42.42,0,0,1,.17-.32s.06-.08.12-.05,0,.23.05.23.26-.21.4-.13-.05.25-.19.36-.4.65,0,.75c.16,0,.34-.17.42-.39s0-.28.11-.41.14-.13.21-.25a3.79,3.79,0,0,1,.22-.4c.12-.17.29-.33.4-.46a1.79,1.79,0,0,1,.37-.38.46.46,0,0,1,.46-.05c.09.06-.27.27-.49.47a1.8,1.8,0,0,0-.55,1.11c0,.19-.13.7,0,.82a.33.33,0,0,0,.29.1c.29,0,.19-.57.35-.8,0,0,.07-.14.15-.1a7.71,7.71,0,0,1-.29,1.77A7.61,7.61,0,0,0,27.22,59c0,.14,0,.28.19.32s.42-.58.49-1a2.81,2.81,0,0,1,.31-1A1.57,1.57,0,0,1,29,57c.23-.05.43-.33.56-.44a2,2,0,0,0,.38-.82.35.35,0,0,0-.22-.46M25.94,55a.63.63,0,0,0-.43.45c0,.06-.1,0-.11,0a.86.86,0,0,1,.1-.57c.16-.25.22-.45.35-.61s.37-.28.41-.23-.12.22-.13.32a.63.63,0,0,1-.15.42c-.06.1.13.19,0,.24m2,.25c-.12.19-.28.27-.36.18s.25-.35.39-.53.21-.19.27-.14-.13.23-.3.49M29,56.4c-.17.11-.27.16-.39.14s-.18-.15-.14-.21,0-.23.07-.33.29-.1.43-.1.3-.07.32.07a.73.73,0,0,1-.29.43M15.85,48.54c-.29-.15-.5-.27-.56-.44,0,0-.06-.2-.12-.22s-.08.08-.19,0a3.29,3.29,0,0,0-.79-.59c-.13-.05-.29-.32-.46-.34s-.57.12-.41.46c.07.15.5.11.83.37.16.13.33,0,.38.27s0,.08-.07.08a8.21,8.21,0,0,0-1.14-.38c-.37-.07-.7-.13-.82.2,0,.07,0,.35-.17.28a.9.9,0,0,0-.66,0,2.57,2.57,0,0,0-.23.25c-.16.22.13.4,0,.47s-.24-.11-.43-.15-.27.11-.32.18,0,.13.2.31a2.76,2.76,0,0,0,.93.57,1,1,0,0,1,.35.27c.07.12-.08.22-.23.14s-1.55-.76-1.39,0a1,1,0,0,0,.38.44c.1,0,.41.09.43.24s-.46.33-.37.62.17.33.29.27.55-.54.66-.53c.31,0,.78.76,1.11.58s.33-.5.21-.58a5.22,5.22,0,0,1-.74-.48c-.06-.07.06-.16.16-.22s.62.43,1,.74.21.26.38.42a.42.42,0,0,0,.72-.24c0-.15-.69-.7-1-.89s-.56-.29-.56-.47.24-.06.25-.06c.31.28,1.76.43,1.69-.49,0-.31.24-.34-.06-.57,0,0-.36-.2-.38-.29a.17.17,0,0,1,.27-.14c.21.14.52.43.56.45.43.21.75-.22.23-.49m-1.75-.21c.06.1,0,.17-.27.15s-.8-.08-.75-.27.93,0,1,.13m-2.25.41c0-.25.46-.2.54-.12s-.5.38-.54.12m1.42.46c-.24.18-.33.42-.42.41s-.24-.13-.36-.18-.41-.14-.44-.19.1,0,.21-.1c.38-.28.54-.46.7-.43s.24.1.34.12.33,0,.32,0a1.4,1.4,0,0,1-.34.34m1.21.51c.07,0,0,.11-.15.15s-.7.09-.72-.08.25-.44.54-.54c.09-.06.14-.23.23-.27s.37.14.34.18-.24.1-.28.23-.07.26,0,.34M9.85,22.57,8,21.74,8.79,20l1.84.83L11,20.1,6.78,18.2,6.43,19,8,19.68l-.77,1.7-1.57-.71-.35.77,4.19,1.9Zm-3.59,4a2.42,2.42,0,0,0,1.83-.2,2.11,2.11,0,0,0,1-1.39,2.07,2.07,0,0,0,0-1.22l-.92-.23a1.66,1.66,0,0,1,.11,1.2,1.33,1.33,0,0,1-.66.88,1.52,1.52,0,0,1-1.15.12,1.52,1.52,0,0,1-.95-.64,1.3,1.3,0,0,1-.17-1.06,1.78,1.78,0,0,1,.61-1L5,22.87a2.25,2.25,0,0,0-.29,2.71,2.41,2.41,0,0,0,1.51,1m5.67-8L8,16.18l-.45.72,3.89,2.45Zm1-1.43-2.27-1.9,3.62.29.45-.54-3.52-3-.53.63,2.26,1.89-3.6-.29-.47.56,3.52,3Zm11-8.51a2,2,0,0,0,3-.75,2.48,2.48,0,0,0,.18-1.79,2.47,2.47,0,0,0-1-1.49,2,2,0,0,0-3,.75,2.46,2.46,0,0,0-.18,1.79,2.49,2.49,0,0,0,1,1.5m-.07-2.84a1.16,1.16,0,0,1,.79-.64,1.15,1.15,0,0,1,1,.19,1.59,1.59,0,0,1,.62,1,1.6,1.6,0,0,1-.09,1.13,1.19,1.19,0,0,1-1.77.44,1.59,1.59,0,0,1-.61-1,1.59,1.59,0,0,1,.09-1.13M4.45,30.92,8.2,31l0-.85-3.75-.1,0-1.31-.85,0-.09,3.47.85,0Zm1.38,4.82a1.38,1.38,0,0,0,.35-.44,1.49,1.49,0,0,0,.1-.28c0-.15.07-.24.08-.29l.07-.32.07-.34,0-.15a1.32,1.32,0,0,1,.09-.25A.4.4,0,0,1,7,33.42a.44.44,0,0,1,.42.18,1,1,0,0,1,.21.55,2.23,2.23,0,0,1-.07.87,2.27,2.27,0,0,1-.35.73l1-.12A2.5,2.5,0,0,0,8.47,34a1.8,1.8,0,0,0-.52-1.12,1.27,1.27,0,0,0-1.09-.34,1.14,1.14,0,0,0-.9.53,3.05,3.05,0,0,0-.37,1c0,.12-.05.27-.09.46a1.43,1.43,0,0,1-.1.35.35.35,0,0,1-.29.25c-.3,0-.48-.18-.54-.64a2.33,2.33,0,0,1,.27-1.38l-.91.11a2.57,2.57,0,0,0-.21,1.39,1.71,1.71,0,0,0,.49,1.09,1.18,1.18,0,0,0,1,.3,1.55,1.55,0,0,0,.62-.22M20.48,10.83,19.21,8.16l3.17,1.77.64-.3-2-4.16-.75.35,1.26,2.66L18.42,6.72,17.76,7l2,4.16ZM9.9,40l-.76.38,1,2-1.06.53L8.3,41.36l-.75.37.79,1.57-.79.4-1-2-.76.38,1.37,2.71,4.11-2.07Zm-.36-1L8.4,38.94l-.5-1.68.9-.7-.26-.87-3.92,3,.23.78,4.94.37Zm-3.67-.24,1.36-1,.35,1.16Zm9.69-24.51L15.2,13.2l1.35-1.11,1,.56.7-.58L13.93,9.64l-.63.52,1.58,4.7Zm.28-2.62-.93.77-.55-1.62ZM32.42,31.57l6.15,4.61V34.24l-6.15-4.62Zm21.43-4.4.82-.21-.55-2.18,1.15-.29.43,1.71.81-.2-.43-1.71.86-.22.54,2.12.82-.21L57.55,23l-4.46,1.12Zm-1.46-4.73,4.93-.25L57,21.34l-3.52.21L56,19.12l-.37-.86L52.07,21.7Zm-1.23-2.58,4-2.34-.43-.73-4,2.34Zm6.39,12.08a1.56,1.56,0,0,0-.65.09,1.37,1.37,0,0,0-.43.35,1.61,1.61,0,0,0-.16.25l-.14.27-.14.3-.14.32-.06.14a1.25,1.25,0,0,1-.14.23.39.39,0,0,1-.4.18.44.44,0,0,1-.37-.26,1.06,1.06,0,0,1-.09-.58,2.23,2.23,0,0,1,.25-.83,2.3,2.3,0,0,1,.49-.65l-1-.09A2.5,2.5,0,0,0,54,33.18a1.81,1.81,0,0,0,.28,1.21,1.28,1.28,0,0,0,1,.56,1.13,1.13,0,0,0,1-.33,3,3,0,0,0,.56-.85l.18-.44a1.4,1.4,0,0,1,.17-.32.35.35,0,0,1,.33-.19c.3,0,.43.27.39.74a2.34,2.34,0,0,1-.55,1.3l.92.08a2.55,2.55,0,0,0,.5-1.31,1.71,1.71,0,0,0-.25-1.17,1.18,1.18,0,0,0-.92-.5M54,28.53l1.85-.14.06.71-1.76,1.35.08,1L56.09,30a1.21,1.21,0,0,0,.52.59,1.4,1.4,0,0,0,.81.16,1.31,1.31,0,0,0,.95-.46,1.4,1.4,0,0,0,.3-1.07l-.15-1.91-4.58.36Zm3.76-.29.08,1a.65.65,0,0,1-.11.46.52.52,0,0,1-.4.19.52.52,0,0,1-.42-.13.65.65,0,0,1-.18-.44l-.08-1Zm-5.68-15-.45-.57L48,15.48l.52.65,2.31-1.84-1,3.49.44.55,3.6-2.86-.52-.65-2.3,1.83ZM37.32,9l.73-.88,1.66.56,0,1.14.86.29-.2-4.95-.77-.26L36.48,8.73Zm2.32-2.85.06,1.71-1.15-.39ZM31.18,0A31.18,31.18,0,1,0,62.36,31.18,31.22,31.22,0,0,0,31.18,0m0,61.16a30,30,0,1,1,30-30,30,30,0,0,1-30,30M43.82,10.94,42,9.95l1.77-3.31L43,6.24l-2.17,4.05,2.6,1.39Zm3.65,3.4a2.08,2.08,0,0,0,1.36-.8l1.75-2L49.93,11l-1.77,2a1.19,1.19,0,0,1-.73.45.86.86,0,0,1-.7-.23.85.85,0,0,1-.32-.66,1.2,1.2,0,0,1,.35-.78l1.77-2-.64-.55-1.75,2a2.1,2.1,0,0,0-.6,1.45,1.79,1.79,0,0,0,1.92,1.67m-14-9.19.77,1.59.47.06,1.14-1.34-.41,3.12.83.11.61-4.56L36,4,34.59,5.75l-.94-2-.84-.11L32.2,8.15l.84.11Zm4.48,51.34c-.2,0-.22.25-.24.45l0,.15c-.06.3-.57.6-1,.74l-.12,0a.74.74,0,0,1-.64,0,.6.6,0,0,1-.2-.49.36.36,0,0,1,.16-.35s.05,0,.07,0,.1.09.33-.05c0,0,0-.06,0-.16a1,1,0,0,1,.06-.23l.09-.17.06-.11a.51.51,0,0,0-.14-.5.61.61,0,0,0-.6-.13,3,3,0,0,0-.93.54,1.57,1.57,0,0,1-.74.4.29.29,0,0,1-.18-.07s-.09-.06-.13,0-.14.13-.23.36a.93.93,0,0,0,0,.23c0,.16,0,.37-.11.42a.09.09,0,0,1-.08,0,.09.09,0,0,1-.06-.06c-.06-.12.08-.39.08-.39l0-.23a.74.74,0,0,1,0-.19c.12-.32.41-.39.72-.46a1.1,1.1,0,0,0,.43-.29c.08-.11,0-.22-.13-.31l0,0a.36.36,0,0,0-.45-.11,2.27,2.27,0,0,0-.47.42,5.68,5.68,0,0,1-.43.42l-.05,0c-.3.25-.65.56-.64.71a.08.08,0,0,0,0,.07c.13.06.25-.07.35-.19s.16-.18.21-.14a.07.07,0,0,1,0,0A.23.23,0,0,1,33,57l0,0a.61.61,0,0,0-.14.36c0,.3,0,.37.12.48L33,58a.44.44,0,0,1,0,.23v.07a.16.16,0,0,0,.16.07s.05,0,.07,0a.35.35,0,0,1,0,.31s0,0,0,0-.14,0-.19,0-.15.11-.18.19l0,.06a.38.38,0,0,0,.18.54.3.3,0,0,0,.36,0c.16-.08.18-.33.21-.61v-.09a2.46,2.46,0,0,1,.12-.59.7.7,0,0,0,0-.36v-.13a.47.47,0,0,1,.25-.31,1.29,1.29,0,0,0,.2-.16l.16-.16a2.35,2.35,0,0,1,.62-.51,1.93,1.93,0,0,0,.27-.2,1.27,1.27,0,0,1,.37-.25h0c.11,0,.32-.11.39,0a.42.42,0,0,1,.05.29.07.07,0,0,1-.07,0c-.06,0-.07,0-.08-.1s0-.08,0-.1a.62.62,0,0,0-.26,0c-.08,0-.13.1-.2.2a1.23,1.23,0,0,1-.17.22,1,1,0,0,0-.23,1,.87.87,0,0,0,.38.55l.07.05c.26.27.61.48,1.47.19a2.09,2.09,0,0,0,1.2-.89,1.1,1.1,0,0,0-.06-.84.24.24,0,0,0-.21-.13M53.56,36.34l4.5.95.17-.83-4.5-.94Zm-10,16.44c.15-.26.18-.56-.11-.6a.36.36,0,0,0-.33.06c-.3.17-.18.31-.39.43s-.17-.33,0-.46c.32-.27.64-.68.53-1s-.25-.53-.63-.19a2,2,0,0,0-.61.87,6.53,6.53,0,0,1-.57,1.52c-.17.24-.2.09-.4.27-.56.49-.87.93-.6,1.23a.57.57,0,0,0,.6.1c.18-.05.29-.2.31-.1a5.16,5.16,0,0,1-.2.86,2.06,2.06,0,0,1-.36.69c-.32.4-.41.54-.32.67a.35.35,0,0,0,.5,0,4.85,4.85,0,0,0,1.09-2.27,4.2,4.2,0,0,1,.24-.59c.08-.22,0-.37.15-.52.37-.45.91-.61,1.1-.93m1.24,1.06a2.54,2.54,0,0,1-.79.23A4.19,4.19,0,0,1,42.82,54c-.15,0-.09.41,0,.59.33.52,1.35.36,2,.19a3.39,3.39,0,0,0,.69-.42c.22-.13.43-.17.42-.32s.06-.18,0-.29c-.19-.27-.61-.18-1.07.08m-21-17.66,6.15-4.62V29.62l-6.15,4.62Zm32.89,3L53.11,38l-.27.81L56.41,40,56,41.23l.8.27,1.09-3.29-.8-.27ZM33.89,54.38a1,1,0,0,1,.27-.34.76.76,0,0,0,.13-.15.22.22,0,0,0,0-.26.27.27,0,0,0-.28-.1c-.19,0-.45.38-.58.58a2.33,2.33,0,0,0-.18.37,1.93,1.93,0,0,1-.19.38.37.37,0,0,0,.07.42.36.36,0,0,0,.39.15s0,0,.07-.09a.26.26,0,0,1,.21-.19c.07,0,.12,0,.17.09a.28.28,0,0,0,.27.1c.13,0,.22-.2.3-.34l.06-.11a3.61,3.61,0,0,1,.83-.86c.09,0,.15,0,.19,0s0,.08.06.16v.07a.19.19,0,0,0,.11.13s.08,0,.07.09-.08.16-.16.22-.17.12-.17.23a.35.35,0,0,0,.1.3.22.22,0,0,0,.21,0c.12,0,.17-.16.22-.29a1.14,1.14,0,0,1,.12-.24.39.39,0,0,1,.24-.15.41.41,0,0,0,.22-.12.27.27,0,0,0,.07-.24.37.37,0,0,0-.22-.24.22.22,0,0,0-.31.1s0,0-.05,0h0c-.1-.1,0-.21,0-.33a.72.72,0,0,0,.07-.17.17.17,0,0,0,0-.18c-.06-.06-.18,0-.35,0a.53.53,0,0,0-.19.16.74.74,0,0,1-.2.18,2.07,2.07,0,0,0-.48.34.77.77,0,0,1-.22.16,1.06,1.06,0,0,1-.22,0,.77.77,0,0,0-.41.1l-.1.15c0,.07-.09.15-.13.16h0c-.07,0,0-.16,0-.28ZM23.79,31.25l6.15-4.62V24.69l-6.15,4.62ZM50.59,50.64c-.12-.17-.07-.19-.13-.25s-.24-.1-.24-.16.25-.35.29-.41.24-.24.28-.4-.4-.35-.51-.28-.39.63-.6.88c-.08.09-.15.08-.2,0s.37-.68.18-.85-.57-.16-.79.16c0,0-.26.41-.53.74s-.34.81-.09.91.48-.14.53-.43c0-.1,0-.11,0-.19s.06-.15.06-.2,0-.27.11-.26.16.21.19.27a.63.63,0,0,1,0,.43c-.17.44-.42.87-.24,1.1a.52.52,0,0,0,.4,0c.11-.06.09-.16.16-.4s.21-.2.24-.27.05-.38.13-.36a.84.84,0,0,1,.4.66.61.61,0,0,1-.1.5s-.21.27-.07.43a.34.34,0,0,0,.43.11c.41-.22.31-.68.28-1.15a1.36,1.36,0,0,0-.18-.61m1.21-9.35-.39.75,1.85.95,1.51,2.57.45-.87-1-1.67,1.92-.17.46-.89-3,.27Zm-3.38,8.17c.31-.36.51-.76.69-1s.24-.22.33-.36.22,0,.31,0c.25-.05.47-.24.46-.43a.51.51,0,0,0-.32-.43c-.44-.21-.76.78-1,.7-.05,0-.06-.35-.06-.35a1.65,1.65,0,0,0-.22-.76c-.13-.2-.23-.17-.34-.25s-.16-.15-.29-.16a.41.41,0,0,0-.47.44c0,.24.2.65.08.8s-.29.16-.35,0-.1-.49-.2-.55-.19.06-.27.21.08.49-.09.56-.18-.14-.26-.12,0,.6-.09.75a.55.55,0,0,0-.05.71c.09.19.31.45.43.67s.38.4.36.52-.08.05-.16.16.24,1,.72,1.25c.09.05.33.07.4-.07s-.39-.4-.49-.66.33-.68.54-1.06a3.27,3.27,0,0,1,.38-.65m-1,.68c-.08,0-.18-.16-.32-.29s-.47-.44-.45-.48,0-.38.08-.36.27.38.35.49.2.09.27.36.17.24.07.29m.14-.92c-.09,0-.13.07-.21,0a.7.7,0,0,1-.13-.69c.19-.26.18.17.2.23s.23.47.14.5m.28-1.8c.07-.23,0-.28.05-.38s.26-.1.4,0,.22.3.13.41-.25,0-.32,0,0,.28.08.26.19.11.22.25,0,.17,0,.22.17.09.2.16-.07.27-.19.26-.15-.38-.23-.45c-.4-.4-.36-.68-.33-.78M47.95,49,47.89,49c-.13,0-.11-.42-.1-.43.19-.16.48.54.16.49M32.42,26.64l6.15,4.62V29.31l-6.15-4.62ZM31.18,10.07A21.11,21.11,0,1,0,52.29,31.18,21.14,21.14,0,0,0,31.18,10.07m0,41.49A20.39,20.39,0,1,1,51.57,31.18,20.41,20.41,0,0,1,31.18,51.57m0-39.57A19.19,19.19,0,1,0,50.37,31.18,19.21,19.21,0,0,0,31.18,12M43.3,29.86a1.2,1.2,0,1,1-1.43,1.91l-.8-.6v1.94l2.24,1.68a1.2,1.2,0,1,1-1.43,1.91l-.8-.6V38l2.24,1.68a1.2,1.2,0,1,1-1.43,1.91l-9.44-7.08V36.5l9.68,7.26a1.2,1.2,0,1,1-1.44,1.91l-8.24-6.18v6.6a1.24,1.24,0,1,1-2.48,0v-6.6L21.7,45.67a1.2,1.2,0,1,1-1.44-1.91l9.68-7.26V34.56L20.5,41.64a1.2,1.2,0,0,1-1.44-1.92L21.3,38V36.1l-.8.6a1.2,1.2,0,1,1-1.43-1.91l2.24-1.68V31.17l-.8.6a1.2,1.2,0,0,1-1.43-1.91L29.94,21.7V19.76L20.5,26.84a1.2,1.2,0,0,1-1.43-1.91l2.24-1.68V20.46a1.24,1.24,0,0,1,2.48,0v.92l6.15-4.62V14.43a1.24,1.24,0,0,1,2.48,0v2.34l6.15,4.62v-.92a1.24,1.24,0,0,1,2.48,0v2.79l2.24,1.68a1.2,1.2,0,1,1-1.43,1.91l-9.44-7.08V21.7Zm174.61-5c.27-.06.43-.32.62-.62a2,2,0,0,1,1.88-1.16c.53,0,.85.41,1.21.89a2.14,2.14,0,0,0,1.95,1.14c1-.09,1.94-1.23,2.75-2.24l.62-.74c1.05-1.18,5.81-5.22,7.43-5.53.77-.15,1.24-.13,1.46.06s.24.67.22,1.3v.54a1.49,1.49,0,0,0,.66,1.14c.28.24.51.46.45.78-.13.75-.8,1.09-1.51,1.45s-1.42.72-1.62,1.52a2.69,2.69,0,0,0,.36,2.41,1.73,1.73,0,0,0,1.56.5c.93-.11,1.49-1,2.08-2a8.86,8.86,0,0,1,1.25-1.68,3,3,0,0,1,2.05-.86,3.13,3.13,0,0,0,1.81-.64,2.11,2.11,0,0,0,.86-1.72,2.85,2.85,0,0,0-1.4-2.13,1.73,1.73,0,0,0-2.48.35c-.18.17-.35.33-.45.32l-.1-.08c-.62-.88-.08-1.66.5-2.5a5.92,5.92,0,0,0,.72-1.25,1.37,1.37,0,0,0-.11-1.41c-.42-.49-1.34-.6-2.73-.33a4.15,4.15,0,0,0-1.69,1,5.51,5.51,0,0,1-1.77,1.1,16.39,16.39,0,0,0-4.09,2,5.86,5.86,0,0,1-1.86.93,8.66,8.66,0,0,1-1.75,0c-1.25-.1-2.66-.21-3.24.25l-1,1c-.43.52-.88,1.05-1.2,1.07l-.2-.09c-.44-.44.12-1.26.66-2.06l.21-.31A8,8,0,0,1,224.5,15a6.07,6.07,0,0,0,1.21-1,1.74,1.74,0,0,0,.28-2,2.07,2.07,0,0,0-2-1.1c-1.48.15-4,2.37-5.17,3.74A17.61,17.61,0,0,0,217,17.3a14.58,14.58,0,0,1-1.9,2.65c-.8.82-.58,2.23,0,3.26a2.81,2.81,0,0,0,2.82,1.68M97,13.72c.45,0,.66-.3,1-.34,1.41-.17,2.93.36,3.56-.08,2.44-1.71,1.49-3.81-1.21-3.9a6.1,6.1,0,0,0-5.05,2.85c-.84,1.28,1.22,1.47,1.67,1.47m-6.87-.26c3.19-1,.75-4.75-2.13-4.33a6.73,6.73,0,0,0-2.14.49c-.67.36-.42.76-.87,1.26a1.4,1.4,0,0,0-.33,1.69c.53,1.47,2.83,1.73,5.46.9M337.47,38c-.79-.23-5.19,1.17-7.51,1.3-.88.05-1.14-.4-1.16-.9-.06-1.73,5.33-1.53,5.26-3.35-.1-2.69-2-3.67-4.76-3.22,0,0-3.38.71-6.42,1-2.56.25-5.85,2.33-5.12,4.08s3.1,1.73,4.84.57c.59-.39.49-.61.83-1.13s1-.44,1.33-.74c.87-.89,1.3-1.48,1.9-.72.22.28-.25,1.87-.42,2.29a4.52,4.52,0,0,1-2,2.36c-3.08,1.31-6.52,2.18-6.8,4.27-.06.48,1.12,1.94,1.88,2.18s1.28-.37,2.81-1.16c.6-.31,2,.09,2.59-.15,1-.43,2.22-1.63,2.51-1.16.57.94.1,3.48-1.39,5.37-.89,1.13-2.18,2.12-3.08,2-.34-.05-2.42.24-2.56,1.76a2.42,2.42,0,0,0,1.62,2.75c3.21,1,5-1.81,7.3-4.32a9.81,9.81,0,0,0,2.22-4c.27-1.49.64-1.31.62-1.94,0-1.24-.69-1.76-.36-2,1.07-.93,3.08-.47,3.53-.52.73-.08,2.44.06,3.42-.56,1.9-1.19-.2-3.75-1.12-4m-46.41-8.63c1.82-1.16,3-3,1.34-4.23a2.65,2.65,0,0,0-2.3-.69c-2.5.07-2.21,1.36-3.91,1.46-.74,0,0-2.71,1.43-3,3-.67,6.4-2.25,6.9-4.9.41-2.17.19-4.26-3.44-3.34a14.68,14.68,0,0,0-6.8,3.54c-3,2.87-5.8,6.4-8.74,7.86-1.9.95-1.59-.05-3.47.38-5.25,1.23-8.73,3.08-8,5.85.54,1.93,2.45,2.46,3.52,2.68,1.32.26,2.49-.32,2.35.41s-2.54,2.94-4.15,4.87a15,15,0,0,1-4.61,3.22c-3.41,1.51-4.46,2.08-4.28,3.21.21,1.38,1.61,2,3.12,1.8,1.7-.19,9.45-4.42,14.6-10.93a31.05,31.05,0,0,1,3.51-3c1.25-1.16,1.41-2.25,2.72-2.8,3.91-1.65,7.86-.87,10.17-2.33M101.8,35.61c-3.1.49-4.51,1.21-5.46.26s1-1.53,1.06-1.53c3.13,0,11.71-6.56,6.67-11.19-1.72-1.58-.45-3.07-3.21-2.8-.24,0-3,.74-3.53.34a1.26,1.26,0,0,1,.8-2.12c1.86-.28,5-.26,5.35-.37,3.43-1,3-5-1.2-3.82-2.34.64-4.09,1.09-5.3.44-.1-.05-1.32-.76-1.8-.59s-.06.85-1.07.93-5-.15-7.28.81c-1,.4-3.22-.28-4.2.44S80.11,19.9,82.7,21c1.13.47,3.28-1.93,6.35-2.16,1.5-.11,2-1.41,3.44-.47.56.37.27.55,0,.81a60.26,60.26,0,0,0-8.08,3.69C82.07,24.29,80,25.62,81,28.08c.22.53,2,1.66.5,2.37s-3.45,2.13-3.62,3.32a19.38,19.38,0,0,0,0,2.51c.22,2,2.73,1.56,2.65,2.35,0,.35-1.89.62-3.11,1.38-.81.51-.89,2-.82,2.59.11,1,.69.71,2.68.71,3.19,0,4.19-.41,8-1.62a7.43,7.43,0,0,1,3.27-.31c1,.27.65,1.58-.51,1.92C87.65,44,77.73,47,82.21,50a7.05,7.05,0,0,0,4.31.44c.8-.25,2.68-1.61,3.59-.85s-.81,4.11,1.15,5.25c1.27.74,2.58,1,2.93,0,.56-1.55.29-5.73.91-6.23,1.83-1.46,8.11.19,8.94-2.44,1-3.06-.73-4.37-1.77-4.2-1.87.3-4.74,1.18-6.46,1.09-.68,0-.48-1.17-.22-2,.61-2,5.54-.76,9.08-.94,2.65-.14,2.45.31,4.17.37,2.43.08,4.09-2.18,2.69-4.93-.53-1-7.27-.35-9.73,0m-20.26,0c-1.44-1.17,1.52-3.38,2.32-3.36,1.47,0-.76,4.61-2.32,3.36M91.6,31c-.4,2.2.3,3.94-.23,4.34-.8.6-2,.53-2.88.87-1.64.59-3,1.32-3.35,1.15-.82-.37.45-.64.62-1.61.62-3.44.63-5.22,1.67-5.86s1.84-.65,2.45-1.07c1.23-.83,1.71-1.7,1.86-1.44A10.51,10.51,0,0,1,91.6,31M91,24.23c-1.95,1.46-4.75,3.58-5.47,2.3s5-4.8,6.18-4.44c.82.24.62,1.15-.71,2.14m5.52,2.49c.17-.8-.39-2-.11-2.62.43-1,2.67-1.1,2.74-.73s-.78,1.73-.34,2.65.9,1.78,1.94,1.64c.61-.08.42.71-.09,1.55-.38.64-3.39,4-4.33,3.2-.67-.56-.86-3.63.19-5.69m248.65.11c-1.11-3.31-7.79,0-8.67-1.74-.18-.36,1.61-2.2,1.51-2.08a11.81,11.81,0,0,0,2.78-4.94c.38-1.63-.24-2-.45-3a4.74,4.74,0,0,0-.63-2.33,2.94,2.94,0,0,0-4.62-.2c-1.16,1.24-2.31,4.29-3.72,4.39-1.57.11-2.27-.68-2-1.55.4-1.23,2-3,1.79-3.78-.13-.46-1.25-.68-2.38-.35s-2.11,2.89-3.34,2.32c-.57-.26-.21-1.63-.67-1.92-1.28-.8-2.89,3.15-4.29,3.3-2.46.26-3.2,1.32-3.87,3.26-.49,1.42-.76,3.86-1.28,5.55-.61,1.95-.15,4-.87,4.47s-.68-.16-1.61,0c-1.35.18-3.8,6.15-2.83,9.91.19.71,1.32,2,2.36,1.73,1.92-.58.08-4,.95-5.82.58-1.24,5.13-1.68,8.07-2.54a23.71,23.71,0,0,1,5.22-1.32c3.38-.24,6.45-1.16,8.53-1.39,1.13-.12,2.34.16,3.49-.07,1.31-.26.85,1.33,1.42,1.73,1.5,1,3.61,1.22,4.54.19a3.6,3.6,0,0,0,.57-3.79m-25.38-3.37c-.54,1.88.58,1.47-.51,3.21-.62,1-.36,2.08-1.12,1.78-.58-.24-.09-1.69-.11-3.1,0-2-.08-4.6.24-4.71.55-.19,1.92-1.89,2.25-1.42.56.8-.59,3.27-.75,4.24m3.77,1.13c-.59-.34-1-.26-.87-1.25.32-2.18,1.83-4,2.9-4.12,2.28-.34,0,1.79-.19,2.16-.45.79-1.26,3.54-1.84,3.21m2.78,1s0-.56,0-.59c-.42-.91,1.58-2.67,1.73-2.66,1.76.16-.38,5.13-1.73,3.25M335,18.84c-.8,0-1.66,1.13-.94,1.74s.36,1.52-.16,2.33c-.21.34-1.09.68-1.24,1-.21.5.38,1.3.21,1.82s-1.73,1-2.26.3c-.84-1,1.17-2.65,1.18-3.42,0-4,1.71-5.23,2.38-5.58,1.49-.79,1.39-1.43,2.21-1.62,1-.23,1.79.86,1.87,2.13s-.45,2.6-1.44,2.68-1.14-1.39-1.8-1.41M295.45,40.38a18.17,18.17,0,0,1-5.81-1.16C285.38,38,283.08,35,282,34.76s-1.92,2.33-1.79,3.88c.37,4.42,7.47,6.83,11.95,7.75,1.73.35,4.12-.26,5.84-.38s3.32.36,3.74-.62,1-.94.84-2c-.35-2.37-3.32-3.22-7.13-3.05m-141.06,3c-1-.8-.38.32-3.2-.07-.8-.11-4.44-1.28-6.28-1.66a12.06,12.06,0,0,1-3.84-2c-.82-.64-2.09-.51-.79-2.33.79-1.1-.64-1.94.18-2.6s2.19-1.31,3.06-2.07c1-.92,2.08-2.63,3.59-4.32s2-6.32.29-7.17c-1.18-.58-2.78-.28-5-.39-1.14-.05-2.42,2-2.21.19.14-1.25,0-1.73,1-2.31,1.51-.89,7.37-.9,6.54-3.83-.66-2.36-4,.34-5.76-.78-.82-.51-.38-3.07-2.48-1.94-.29.15-1.58.65-1.83,1.06s-.11,2.14-.29,2.16a40.16,40.16,0,0,0-5.92,1c-2.51.65-4.61-.25-6.08,1.26a7.06,7.06,0,0,0-1.6,1.83c-.7,1.4.5,3,2.24,3.06.75,0,4.25-2.65,5.93-3.13,1.94-.56,4-1.05,4.53-.4.27.32.18,1.16-.25,2-1.56,3.21-3.36,3.06-4.74,3.83-.3.17-.53-.47-.18-1,.46-.72,1.66-1.53,1.57-1.8s-2.51.06-4.45,1a7.6,7.6,0,0,0-1.79,1.26c-1.61,1.36-2.66,5.78-2,9.53.58,3.11.48,5.76,2.47,6.17,2.37.49,2.32-1.79,1.85-5.37a7.31,7.31,0,0,1,1.38-4.74c.23-.37.52-2.73,3.52-2.49.13,0,.28.68-.38,1-.86.44-1.72,1.54-1.66,2.15s.82,1.37,1.18,2.26-1.38,1.59.66,2.65c.16.08-.69,1.06-1.22,1-.25,0-.34-.43-.58-.41-.74.09-1,2.05-1,2.28a9.79,9.79,0,0,1-2.84,3.47,68.65,68.65,0,0,0-6.08,6.65c-1.65,2.15-.42,3.56,2.52,3.37,1.31-.08,3.56-3,4.71-4.29.81-.94,2.57-2.88,3.65-3.14s-.39,7,.11,7.76c.88,1.25,3.61,1.69,3.62-.43,0-1-.18-2.17-.24-3.61,0-1.12.23-2.47.26-3.49,0-1.46.06-2.89.43-3,.84-.14,1.35,1.11,2.88,2.39,3.58,3,10,4.94,14.43,4.73,2.66-.12,3.8-2,1.41-4.21-.54-.51-.94-.86-1.23-1.09M139.14,31.22c.23-.81.74-2.62-.45-3.06s-1.07-3.16-.07-2.91c1.85.45,4.65-.19,4.81.22.67,1.68-1,4-2.43,5.3-.53.47-.95,1.39-1.27,1.68-.85.77-1,.23-.59-1.23m59.38-7.59c-2.29-.55-5.4,2.15-6.55,1.1-.47-.44.22-1.61.23-2.36a2.1,2.1,0,0,0-1.84-2.17c-.63,0-.76-.82-.06-1a11.59,11.59,0,0,1,2.57-.35c2-.18,3.09-.51,4-2.47a1.9,1.9,0,0,0-1-2.17c-1.16-.56-4.4,0-7.77.66-3.64.77-7.49,1.39-8,2.86-.25.72-.88,1.6-1.13,2.5-.37,1.3-.51,2.46-1.11,3.06-1.87,1.9-1.91,5.1-2.52,4.13-.42-.66-1.47-.41-2.13-.43-.31,0-.43-.84-.15-1.21s.38-.09.83-.38c1.22-.79,2.57-2.51,2.65-3.56.19-2.64.84-4.73-.56-6a5.9,5.9,0,0,0-4.7-1.08,8.48,8.48,0,0,0-3.21,1.1c-1.49,1-1.66,3.11-2.18,5.72a27.65,27.65,0,0,0-1,4.11c-.16,2.07-.32,5-.36,6.43-.1,3.33.19,5.58,1.36,7.7.61,1.1.54,2.84,2.23,2.61,1.4-.19-.24-5.19-.26-7.62a3,3,0,0,1,.73-2.5c.22-.17.34-.67.81-.54s0,1.66.7,1.53c1.22-.21,1.58-1.83,2.64-1.45.84.3,0,1.79-.83,2.8-1.58,2-1.89,5.14.85,5.35,1.17.09,2.19-1.67,2.46-3.3.2-1.28-.07-2,.19-3,.21-.8.83-1.08,1.16-2.07a26.48,26.48,0,0,1,1-3.14c.61-1.32,1.58-2.73,2.18-3.82a12.48,12.48,0,0,1,2.11-3.17c.86-.79,2.2-1.45,3.18-1,.7.3-1.57,2.26-2.83,4A12.88,12.88,0,0,0,179.71,33c.05,1.36,0,5.14,1.07,5.76a2.38,2.38,0,0,0,2.15.33c2-.6.53-4.29,1.4-6.14.19-.4.3-1.1,1-.89s.5,8.18.34,12.87a54.75,54.75,0,0,0,.51,8.27c.11,1,.26,2,1.8,2,2.19,0,2.13-4.67,2.09-7.57,0-2.4.08-6,.86-7.38s3.33-2.87,4.87-3.54,2.59-2.89,3.38-3.84c1.07-1.28,1.53-5,1.55-6.32,0-1.8-.68-2.57-2.17-2.93m-26.46-1.72a4.57,4.57,0,0,1-.5,3.18c-.27.75,1.17,1.17.12,1.7a4.51,4.51,0,0,0-2.45,3.75c-.08.46-.64.42-.8,0a6.17,6.17,0,0,1-.08-4.16c.78-2,.95-3.45,1.62-4.74.84-1.63,2.2-2.5,2.59-2.18.76.6-.57,1.72-.49,2.44m13.79,4c-.59,1.49-1.58,2.26-2.29,1.73-.52-.38,1.28-2.79,2-4.24.91-1.81,1.22-1.59,1.71-1.33s-.63,1.8-1.44,3.84m9,6.77c-1.07,1-1.7,1.5-2.52,1.54-.43,0-1.46-.81-1.31-1.32.36-1.29-.12-1.68,0-2.39.26-1.16,1.9-1.07,2.88-1.26,1.32-.25,2-.9,2.33,0a5.23,5.23,0,0,1-1.43,3.41m55.47,5.85c-1.54-.21-2,1.65-2.43,3.15l-.34,1.13c-.83,2.19-5.14,3.88-8.78,4.35l-1,.15c-1.76.28-3.15.49-4.9-.75-.76-.54-1.16-2.35-.88-4A2.82,2.82,0,0,1,233.66,40c.35-.11.42,0,.53.23.26.5.63.84,2.57,0,.17-.07.31-.45.57-1.19a8.14,8.14,0,0,1,.73-1.7l.89-1.15.6-.8a4,4,0,0,0-.46-4,4.78,4.78,0,0,0-4.42-1.74c-2.67.28-5.39,1.69-7.79,2.94s-4.56,2.36-6.15,2.11a2.3,2.3,0,0,1-1.25-.76c-.3-.29-.59-.58-1-.53-.54.07-1.21.79-2.24,2.43a7.71,7.71,0,0,0-.56,1.75c-.31,1.22-.7,2.75-1.37,3.07a.7.7,0,0,1-.6,0,.71.71,0,0,1-.42-.5c-.26-1,1.1-2.9,1.11-2.91s.59-1.73.59-1.73a5.74,5.74,0,0,1,.51-1.44c1.35-2.29,3.65-2.43,6.08-2.58a8.45,8.45,0,0,0,3.66-1.64c.72-.72,0-1.75-.56-2.57l-.11-.15c-.94-1.38-2-1.85-3.28-1.45a17.67,17.67,0,0,0-4.11,2.63A43.33,43.33,0,0,1,213.39,31l-.45.26c-2.65,1.52-5.71,3.42-5.78,4.62a.66.66,0,0,0,.29.59c.87.64,2-.23,2.95-1,.75-.59,1.45-1.14,1.8-.79a.52.52,0,0,1,.18.38c0,.27-.22.61-.68,1l-.21.2a4.76,4.76,0,0,0-1.56,2.59c-.68,2.25-.3,2.84.33,3.82l.63,1.08a3.34,3.34,0,0,1,.09,1.82v.58a1.24,1.24,0,0,0,1.16.74c.25,0,.4,0,.52.32a2.76,2.76,0,0,1-.53,2.35s-.09,0-.17-.16c-.2-.49-1.06-.5-1.38-.5-.87,0-1.25.64-1.59,1.22l-.25.41c-1.43,2-.46,3.35.67,4.37a2.36,2.36,0,0,0,2.75.67c1.28-.4,1.81-2.33,2.36-4.38l.18-.66a19.33,19.33,0,0,1,1.67-4.4,5.27,5.27,0,0,0,.74-2.71l.15-1a3.56,3.56,0,0,1,2.28-2.08,10.33,10.33,0,0,0,1.75-1l1.43-1.06a18.16,18.16,0,0,1,5.39-3.12,14.21,14.21,0,0,0,2.32-1.17,9.94,9.94,0,0,1,3.16-1.41l.21,0c.9-.14,2.58-.41,3,.23a3.28,3.28,0,0,1,0,2.29.56.56,0,0,1-.63.25c-.48-.09-.49-.38-.47-.83a.94.94,0,0,0-.21-.83,4.8,4.8,0,0,0-2-.36c-.59,0-1.14.59-1.78,1.27a9.3,9.3,0,0,1-1.59,1.44c-2.23,1.46-3.19,4.63-3,7a6.74,6.74,0,0,0,2.2,4.68l.44.47c1.62,2.41,4.08,4.47,11,3.33,4.56-.75,8.32-2.69,10.32-5.32a8.53,8.53,0,0,0,.61-6.52,1.84,1.84,0,0,0-1.42-1.28"/></g></g></svg>